<svg width="128" height="128" viewBox="0 0 128 128" fill="none" xmlns="http://www.w3.org/2000/svg">
<g clip-path="url(#clip0_26_34)">
<line x1="4" y1="4" x2="124" y2="4" stroke="#EF5F00" stroke-width="8" stroke-linecap="round"/>
<path d="M0 106.166C0 105.143 0.187801 104.29 0.563402 103.608C1.0016 102.925 1.5024 102.584 2.06581 102.584C2.75441 102.584 3.28651 102.243 3.66211 101.561C4.10031 100.878 4.31941 100.026 4.31941 99.0021V31.6588C4.31941 30.7036 4.63241 29.8849 5.25841 29.2026C5.88442 28.452 6.63562 28.0768 7.51202 28.0768H33.9919C34.8683 28.0768 35.6508 27.7356 36.3394 27.0533C37.028 26.371 37.3723 25.5522 37.3723 24.597V21.5267C37.3723 20.5714 37.6853 19.7527 38.3113 19.0704C38.9373 18.3881 39.6885 18.0469 40.5649 18.0469H42.6307C43.5071 18.0469 44.2896 18.3881 44.9782 19.0704C45.6668 19.7527 46.0111 20.5714 46.0111 21.5267V24.597C46.0111 25.5522 46.2928 26.371 46.8562 27.0533C47.4822 27.7356 48.2334 28.0768 49.1098 28.0768H50.0488C50.9878 28.0768 51.7703 27.8038 52.3963 27.258C53.0223 26.6439 53.3353 25.8593 53.3353 24.9041C53.3353 23.9488 53.6484 23.1642 54.2744 22.5501C54.9004 21.8678 55.6516 21.5267 56.528 21.5267H58.5938C59.5328 21.5267 60.3153 21.9019 60.9413 22.6525C61.5673 23.3348 61.8803 24.1535 61.8803 25.1087V34.0128C61.8803 34.968 61.5673 35.7868 60.9413 36.4691C60.3153 37.1514 59.5328 37.4925 58.5938 37.4925H49.1098C48.2334 37.4925 47.4822 37.8678 46.8562 38.6183C46.2928 39.3006 46.0111 40.1194 46.0111 41.0746V78.7377C46.0111 79.7612 46.2928 80.6482 46.8562 81.3987C47.4822 82.081 48.2334 82.4222 49.1098 82.4222H50.0488C50.9252 82.4222 51.6764 82.0469 52.3024 81.2964C52.991 80.5458 53.3353 79.693 53.3353 78.7377V46.7036C53.3353 45.7484 53.6484 44.8955 54.2744 44.145C54.9004 43.3945 55.6516 43.0192 56.528 43.0192H58.5938C59.5328 43.0192 60.3153 43.3945 60.9413 44.145C61.5673 44.8273 61.8803 45.6802 61.8803 46.7036V88.1535C61.8803 89.1087 61.5673 89.9616 60.9413 90.7121C60.3153 91.3945 59.5328 91.7356 58.5938 91.7356H49.1098C48.2334 91.7356 47.4822 92.0768 46.8562 92.7591C46.2928 93.4414 46.0111 94.2601 46.0111 95.2153V99.0021C46.0111 100.026 46.2928 100.878 46.8562 101.561C47.4822 102.243 48.2334 102.584 49.1098 102.584H58.5938C59.5328 102.584 60.3153 102.925 60.9413 103.608C61.5673 104.29 61.8803 105.143 61.8803 106.166V108.418C61.8803 109.373 61.5673 110.192 60.9413 110.874C60.3153 111.625 59.5328 112 58.5938 112H40.5649C39.6885 112 38.9373 111.625 38.3113 110.874C37.6853 110.192 37.3723 109.373 37.3723 108.418V41.0746C37.3723 40.1194 37.028 39.3006 36.3394 38.6183C35.6508 37.8678 34.8683 37.4925 33.9919 37.4925H16.1508C15.2744 37.4925 14.5232 37.8678 13.8972 38.6183C13.2712 39.3006 12.9582 40.1194 12.9582 41.0746V46.2942C12.9582 47.2495 13.2712 48.1023 13.8972 48.8529C14.5232 49.5352 15.2744 49.8763 16.1508 49.8763H27.4189C28.2953 49.8763 29.0465 50.2175 29.6725 50.8998C30.3611 51.5821 30.7054 52.435 30.7054 53.4584V108.418C30.7054 109.373 30.3611 110.192 29.6725 110.874C29.0465 111.625 28.2953 112 27.4189 112H20.0947C19.2183 112 18.4671 111.625 17.841 110.874C17.215 110.192 16.902 109.373 16.902 108.418V106.166C16.902 105.143 17.1524 104.29 17.6533 103.608C18.1541 102.925 18.7488 102.584 19.4374 102.584C20.126 102.584 20.7207 102.243 21.2215 101.561C21.7849 100.878 22.0666 100.026 22.0666 99.0021V62.7719C22.0666 61.8166 21.7536 60.9979 21.1276 60.3156C20.5016 59.6333 19.7191 59.2921 18.7801 59.2921H16.1508C15.2744 59.2921 14.5232 59.6333 13.8972 60.3156C13.2712 60.9979 12.9582 61.8166 12.9582 62.7719V108.418C12.9582 109.373 12.6452 110.192 12.0192 110.874C11.3932 111.625 10.6107 112 9.67173 112H3.00481C2.12841 112 1.4085 111.659 0.845102 110.977C0.281701 110.294 0 109.441 0 108.418V106.166Z" fill="#EF5F00"/>
<path d="M96.6373 21.1173C96.6373 20.2303 96.919 19.5139 97.4824 18.968C98.0458 18.3539 98.7031 18.0469 99.4543 18.0469H116.544C117.295 18.0469 117.953 17.9446 118.516 17.7399C119.079 17.5352 119.361 17.2964 119.361 17.0235C119.361 16.3412 120.3 16 122.178 16H124.995C125.809 16 126.466 16.2047 126.967 16.6141C127.53 16.9552 127.812 17.3987 127.812 17.9446C127.812 18.4904 127.624 19.1727 127.249 19.9915C126.873 20.742 126.404 21.4243 125.84 22.0384L123.023 25.1087C122.46 25.7228 121.709 26.2687 120.77 26.7463C119.831 27.1556 118.986 27.3603 118.234 27.3603H99.4543C98.7031 27.3603 98.0458 27.0533 97.4824 26.4392C96.919 25.8252 96.6373 25.1087 96.6373 24.29V21.1173ZM117.953 40.5629C117.201 40.5629 116.544 40.8699 115.981 41.484C115.417 42.0299 115.136 42.7463 115.136 43.6333V46.1919C115.136 47.0107 115.417 47.7271 115.981 48.3412C116.544 48.9552 117.201 49.2623 117.953 49.2623H124.338C125.152 49.2623 125.809 49.5693 126.31 50.1834C126.873 50.7292 127.155 51.4456 127.155 52.3326V55.5053C127.155 56.3241 126.873 57.0405 126.31 57.6546C125.809 58.2687 125.152 58.5757 124.338 58.5757H117.953C117.201 58.5757 116.544 58.8827 115.981 59.4968C115.417 60.0426 115.136 60.7591 115.136 61.6461V64.2047C115.136 65.0235 115.417 65.7399 115.981 66.3539C116.544 66.968 117.201 67.2751 117.953 67.2751H124.338C125.152 67.2751 125.809 67.5821 126.31 68.1962C126.873 68.742 127.155 69.4584 127.155 70.3454V73.5181C127.155 74.3369 126.873 75.0533 126.31 75.6674C125.809 76.2815 125.152 76.5885 124.338 76.5885H117.953C117.201 76.5885 116.544 76.8955 115.981 77.5096C115.417 78.0554 115.136 78.7719 115.136 79.6588V82.2175C115.136 83.1045 115.417 83.855 115.981 84.4691C116.544 85.0149 117.201 85.2878 117.953 85.2878H125.089C125.903 85.2878 126.56 85.5949 127.061 86.209C127.624 86.823 127.906 87.5394 127.906 88.3582V91.5309C127.906 92.3497 127.624 93.0661 127.061 93.6802C126.56 94.2942 125.903 94.6013 125.089 94.6013H95.041C94.2898 94.6013 93.6325 94.6695 93.0691 94.806C92.5057 94.9424 92.224 95.0789 92.224 95.2153C92.224 95.42 91.9423 95.5906 91.3789 95.7271C90.8781 95.8635 90.2208 95.9318 89.407 95.9318H86.4961C85.7449 95.9318 85.0876 95.6247 84.5242 95.0107C83.9608 94.3966 83.6791 93.6802 83.6791 92.8614V44.7591C83.6791 43.8721 83.5226 43.1556 83.2096 42.6098C82.8966 41.9957 82.521 41.6887 82.0828 41.6887C81.6446 41.6887 81.269 41.3817 80.956 40.7676C80.643 40.1535 80.4865 39.4371 80.4865 38.6183V35.4456C80.4865 34.5586 80.6743 33.8422 81.0499 33.2964C81.4881 32.6823 82.0202 32.3753 82.6462 32.3753C83.2096 32.3753 83.6791 32.0682 84.0547 31.4542C84.4929 30.8401 84.712 30.1237 84.712 29.3049V19.4797C84.712 18.661 84.9937 17.9446 85.5571 17.3305C86.1205 16.7164 86.7778 16.4094 87.529 16.4094H90.4399C91.1911 16.4094 91.8484 16.7164 92.4118 17.3305C92.9752 17.9446 93.2569 18.661 93.2569 19.4797V28.1791C93.2569 28.9979 93.5073 29.7143 94.0081 30.3284C94.5715 30.9424 95.2601 31.2495 96.0739 31.2495H125.089C125.903 31.2495 126.56 31.5565 127.061 32.1706C127.624 32.7164 127.906 33.4328 127.906 34.3198V37.4925C127.906 38.3113 127.624 39.0277 127.061 39.6418C126.56 40.2559 125.903 40.5629 125.089 40.5629H117.953ZM70.533 18.5586C71.0338 18.0128 71.6911 17.7399 72.5049 17.7399C73.3187 17.7399 73.976 18.0128 74.4768 18.5586L76.5426 20.8102C77.1061 21.2878 77.3878 22.0043 77.3878 22.9595C77.3878 23.7783 77.1061 24.4947 76.5426 25.1087L74.4768 27.4627C73.8508 28.0085 73.1935 28.2814 72.5049 28.2814C71.7537 28.2814 71.0964 27.9744 70.533 27.3603L68.4672 25.1087C67.9038 24.4947 67.6221 23.7783 67.6221 22.9595C67.6221 22.0043 67.9038 21.2878 68.4672 20.8102L70.533 18.5586ZM128 105.45C128 106.337 127.718 107.053 127.155 107.599C126.654 108.213 125.997 108.52 125.183 108.52H86.2144C85.4006 108.52 84.5242 108.316 83.5852 107.906C82.6462 107.497 81.895 106.985 81.3316 106.371L79.078 103.915C78.452 103.369 77.7947 103.096 77.1061 103.096C76.3549 103.096 75.6662 103.369 75.0402 103.915L72.7866 106.371C72.2232 106.985 71.5346 107.497 70.7208 107.906C69.907 108.316 69.2184 108.52 68.655 108.52C68.029 108.52 67.4969 108.213 67.0587 107.599C66.6831 107.053 66.4953 106.337 66.4953 105.45V102.38C66.4953 101.561 66.6205 100.844 66.8709 100.23C67.1213 99.6162 67.4343 99.3092 67.8099 99.3092C68.1229 99.3092 68.4046 99.0362 68.655 98.4904C68.968 97.8763 69.1245 97.1599 69.1245 96.3411V45.4755C69.1245 44.6567 68.968 43.9403 68.655 43.3262C68.4046 42.7122 68.1229 42.4051 67.8099 42.4051C67.4343 42.4051 67.1213 42.0981 66.8709 41.484C66.6205 40.8699 66.4953 40.1535 66.4953 39.3348V36.162C66.4953 35.2751 66.7457 34.5586 67.2465 34.0128C67.8099 33.3987 68.4985 33.0917 69.3123 33.0917H74.8524C75.6037 33.0917 76.2609 33.3987 76.8244 34.0128C77.3878 34.5586 77.6695 35.2751 77.6695 36.162V86.6183C77.6695 87.4371 77.8573 88.3582 78.2329 89.3817C78.6085 90.4051 79.078 91.2239 79.6414 91.838L84.4303 97.0576C84.9311 97.6716 85.651 98.1834 86.59 98.5927C87.529 99.0021 88.4054 99.2068 89.2192 99.2068H125.183C125.997 99.2068 126.654 99.5139 127.155 100.128C127.718 100.742 128 101.458 128 102.277V105.45ZM106.591 43.6333C106.591 42.7463 106.309 42.0299 105.746 41.484C105.245 40.8699 104.588 40.5629 103.774 40.5629H95.041C94.2898 40.5629 93.6325 40.8699 93.0691 41.484C92.5057 42.0299 92.224 42.7463 92.224 43.6333V46.1919C92.224 47.0107 92.5057 47.7271 93.0691 48.3412C93.6325 48.9552 94.2898 49.2623 95.041 49.2623H103.774C104.588 49.2623 105.245 48.9552 105.746 48.3412C106.309 47.7271 106.591 47.0107 106.591 46.1919V43.6333ZM106.591 61.6461C106.591 60.7591 106.309 60.0426 105.746 59.4968C105.245 58.8827 104.588 58.5757 103.774 58.5757H95.041C94.2898 58.5757 93.6325 58.8827 93.0691 59.4968C92.5057 60.0426 92.224 60.7591 92.224 61.6461V64.2047C92.224 65.0235 92.5057 65.7399 93.0691 66.3539C93.6325 66.968 94.2898 67.2751 95.041 67.2751H103.774C104.588 67.2751 105.245 66.968 105.746 66.3539C106.309 65.7399 106.591 65.0235 106.591 64.2047V61.6461ZM106.591 79.6588C106.591 78.7719 106.309 78.0554 105.746 77.5096C105.245 76.8955 104.588 76.5885 103.774 76.5885H95.041C94.2898 76.5885 93.6325 76.8955 93.0691 77.5096C92.5057 78.0554 92.224 78.7719 92.224 79.6588V82.2175C92.224 83.1045 92.5057 83.855 93.0691 84.4691C93.6325 85.0149 94.2898 85.2878 95.041 85.2878H103.774C104.588 85.2878 105.245 85.0149 105.746 84.4691C106.309 83.855 106.591 83.1045 106.591 82.2175V79.6588Z" fill="#EF5F00"/>
<line x1="4" y1="124" x2="124" y2="124" stroke="#EF5F00" stroke-width="8" stroke-linecap="round"/>
</g>
<defs>
<clipPath id="clip0_26_34">
<rect width="128" height="128" fill="white"/>
</clipPath>
</defs>
</svg>
